<svg xmlns="http://www.w3.org/2000/svg" width="88" height="18" viewBox="0 0 88 18">
    <g fill="#FFAA05" fill-rule="evenodd">
        <path d="M22.155 3.052c7.48.174 10.961 3.065 10.446 8.674-.517 5.633-4.343 7.473-11.477 5.52-.313-.086-.532-.358-.556-.674v-.106l.813-12.704c.026-.406.367-.72.774-.71zm-12.129.469c.175-.284.515-.42.837-.335l2.048.536c.053.014.105.033.153.058.373.19.521.647.33 1.02l-2.448 4.797 3.324 5.906c.02.038.039.077.053.117.14.395-.065.828-.46.97l-2.345.836c-.334.12-.707-.01-.896-.31L7.879 12.76l-1.227 1.88v2.296c0 .392-.3.72-.69.755l-2.18.195h-.01c-.417.032-.782-.28-.814-.698L2.001 4.701c-.032-.411.272-.773.682-.813l2.638-.256c.414-.04.783.26.827.674l.504 4.673zm23.88 2.919c1.152-2.596 4.107-3.312 8.866-2.149.401.098.65.499.56.902l-.376 1.69c-.008.036-.019.071-.032.105-.149.392-.587.588-.978.439-1.628-.62-2.915-.815-3.86-.582-1.647.406-1.004 1.823.574 2.146 1.578.323 5.811.393 5.297 5.439-.329 3.225-3.669 4.158-10.02 2.799-.03-.007-.06-.015-.09-.025-.395-.137-.604-.57-.467-.965l.732-2.106c.004-.014.01-.027.015-.04.159-.387.602-.572.989-.413 2.62 1.077 4.159 1.204 4.616.38.748-1.346-1.012-1.317-2.521-1.738-1.51-.42-5.12-1.796-3.306-5.882zM18.392 7.76c.418.013.748.362.736.78l-.238 8.354c-.012.41-.348.736-.758.736h-1.47c-.413 0-.75-.33-.758-.742l-.18-8.353v-.017c0-.418.339-.758.757-.758zm5.984-.47l-.004.052-.293 6.281c-.018.39.262.73.647.786 2.775.406 4.244-.718 4.409-3.371.162-2.62-1.144-4.09-3.918-4.414-.416-.048-.792.25-.84.665zM17.543 2c1.043 0 1.888.875 1.888 1.954s-.845 1.954-1.888 1.954c-1.042 0-1.888-.875-1.888-1.954 0-1.08.846-1.954 1.888-1.954z" transform="translate(0 -1)"/>
        <text font-family="SFProText-Bold, SF Pro Text, Roboto, HelveticaNeue-Light, sans-serif" font-size="18" font-weight="bold" letter-spacing="-.318" transform="translate(0 -1)">
            <tspan x="48" y="17">Safe</tspan>
        </text>
    </g>
</svg>
